<?xml version="1.0" encoding="UTF-8"?>
<svg version="1.1" xmlns="http://www.w3.org/2000/svg" width="490" height="103">
<path d="M0 0 C161.7 0 323.4 0 490 0 C490 33.99 490 67.98 490 103 C328.3 103 166.6 103 0 103 C0 69.01 0 35.02 0 0 Z " fill="#FBFCFD" transform="translate(0,0)"/>
<path d="M0 0 C7.98965684 -0.02333233 15.97929908 -0.0410203 23.96898174 -0.05181217 C27.68026128 -0.05699582 31.39151723 -0.06400972 35.1027832 -0.07543945 C38.69490091 -0.08643102 42.28699616 -0.0923107 45.87912941 -0.09487724 C47.89336005 -0.09758126 49.90758186 -0.10536643 51.92179871 -0.11329651 C63.73649338 -0.11400456 75.18915486 0.40662677 86.6875 3.25 C88.05346313 3.58487427 88.05346313 3.58487427 89.44702148 3.92651367 C95.78942335 5.54787528 101.45589147 7.44784551 107 11 C107.84175781 11.52851563 108.68351562 12.05703125 109.55078125 12.6015625 C112.74214482 14.67616953 115.8752283 16.82723128 119 19 C119.72509766 19.50208984 120.45019531 20.00417969 121.19726562 20.52148438 C131.16575286 27.43155141 141.05423292 34.44688504 150.87304688 41.56787109 C156.20904951 45.43707663 161.57715205 49.25305732 167 53 C164.54453748 56.17163908 163.10204276 56.97425669 159.14453125 57.97265625 C154.7399139 58.30724852 152.32852171 56.97215895 148.6875 54.4375 C148.10266846 54.03764893 147.51783691 53.63779785 146.9152832 53.22583008 C144.92145459 51.84588468 142.95916191 50.42870958 141 49 C140.2678125 48.46826172 139.535625 47.93652344 138.78125 47.38867188 C134.77431196 44.4680743 130.78732269 41.52137873 126.80859375 38.5625 C93.25707754 13.27945165 93.25707754 13.27945165 53.11816406 3.84228516 C51.98388977 3.83202301 50.84961548 3.82176086 49.68096924 3.81118774 C47.86662384 3.80023575 47.86662384 3.80023575 46.015625 3.7890625 C43.44660793 3.76101935 40.87759759 3.73235511 38.30859375 3.703125 C34.26386877 3.66057278 30.21918911 3.62372914 26.17431641 3.59863281 C22.26703031 3.57374674 18.36018783 3.52533222 14.453125 3.4765625 C13.23546448 3.47330963 12.01780396 3.47005676 10.76324463 3.46670532 C9.64157898 3.45013885 8.51991333 3.43357239 7.36425781 3.41650391 C6.37419739 3.40841705 5.38413696 3.4003302 4.36407471 3.39199829 C3.58393005 3.26263885 2.8037854 3.13327942 2 3 C1.34 2.01 0.68 1.02 0 0 Z " fill="#066398" transform="translate(0,0)"/>
<path d="M0 0 C7.75139875 -0.07710834 15.50269593 -0.12903546 23.25439453 -0.16479492 C25.88236181 -0.17972838 28.51030485 -0.20008247 31.13818359 -0.22631836 C66.48081752 -0.56990859 90.34194665 4.87153199 118.72998047 26.30029297 C121.949755 28.71114157 125.21812509 31.04974398 128.5 33.375 C134.36486409 37.54086475 140.19132112 41.75610808 146 46 C141.95890411 50.89829805 141.95890411 50.89829805 137.6484375 51.35546875 C133.61088899 50.96208876 131.94816873 50.15535087 128.6875 47.8125 C127.64980469 47.07902344 126.61210937 46.34554687 125.54296875 45.58984375 C124.36133565 44.72744353 123.18038698 43.86410502 122 43 C120.6426195 42.0211745 119.28451009 41.04335924 117.92578125 40.06640625 C114.90085264 37.88665334 111.87916081 35.70249641 108.859375 33.515625 C108.06724609 32.94263672 107.27511719 32.36964844 106.45898438 31.77929688 C104.79267425 30.57357128 103.12733883 29.36649771 101.46289062 28.15820312 C80.75735642 13.17538301 60.80044514 3.15028733 34.7890625 2.68359375 C33.82092621 2.66281265 32.85278992 2.64203156 31.85531616 2.62062073 C28.77861268 2.55551016 25.70182764 2.49642002 22.625 2.4375 C20.53254383 2.39427814 18.44009574 2.3506627 16.34765625 2.30664062 C11.23185331 2.19986844 6.11596875 2.09849364 1 2 C0.67 1.34 0.34 0.68 0 0 Z " fill="#056298" transform="translate(9,15)"/>
<path d="M0 0 C7.11250288 -0.10257076 14.22481073 -0.17194929 21.33789062 -0.21972656 C23.75072354 -0.23967265 26.16350919 -0.26683943 28.57617188 -0.30175781 C42.35547895 -0.49599348 54.83989858 -0.3688199 68 4 C69.22299805 4.36770508 70.44599609 4.73541016 71.70605469 5.11425781 C91.81183147 11.28368532 110.04041379 26.7270778 126 40 C123.11356279 43.0176389 121.71775417 43.91185475 117.4375 44.4375 C111.75734003 44.30587419 108.37604923 41.36377348 104 38 C101.50353983 36.09948302 99.00267799 34.20482024 96.5 32.3125 C95.81687744 31.79558594 95.13375488 31.27867188 94.42993164 30.74609375 C86.88058525 25.08124979 79.06204312 19.90440957 71 15 C70.35675781 14.6076416 69.71351562 14.2152832 69.05078125 13.81103516 C67.1949116 12.69894832 65.32250802 11.62431952 63.4375 10.5625 C62.38433594 9.96566406 61.33117187 9.36882813 60.24609375 8.75390625 C47.05222345 2.74607518 33.23546024 2.36057167 19 2.25 C17.14580656 2.22175861 15.29163816 2.19182023 13.4375 2.16015625 C8.95837988 2.087276 4.47955332 2.0371163 0 2 C0 1.34 0 0.68 0 0 Z " fill="#066398" transform="translate(18,30)"/>
<path d="M0 0 C44.49329406 -0.61052652 71.56008647 6.81597542 107 34 C105.26531008 36.52318534 103.83416446 37.82679817 100.80004883 38.45678711 C93.87436925 38.82094489 89.99937622 36.78099657 84.6875 32.5625 C83.2086998 31.45523956 81.72952954 30.34847319 80.25 29.2421875 C79.53070313 28.69143555 78.81140625 28.14068359 78.0703125 27.57324219 C62.18820692 15.50434026 45.24009207 4.27440594 24.73046875 3.68359375 C24.04946609 3.66281265 23.36846344 3.64203156 22.66682434 3.62062073 C20.50714492 3.55562122 18.34735154 3.49647288 16.1875 3.4375 C14.71678544 3.3942675 13.24608209 3.35065175 11.77539062 3.30664062 C8.18371283 3.19999141 4.59190918 3.09858651 1 3 C0.67 2.01 0.34 1.02 0 0 Z " fill="#046198" transform="translate(26,44)"/>
<path d="M0 0 C2.31 0 4.62 0 7 0 C8.82283831 10.37281803 10.57014005 20.42073458 10 31 C10.66 31 11.32 31 12 31 C12.15082031 29.93785278 12.15082031 29.93785278 12.3046875 28.85424805 C13.10297334 25.5772959 14.40178341 23.22909255 16.125 20.33203125 C17.06085938 18.74551758 17.06085938 18.74551758 18.015625 17.12695312 C18.67046875 16.03318359 19.3253125 14.93941406 20 13.8125 C21.29195892 11.63168352 22.58363996 9.4507024 23.875 7.26953125 C24.73738281 5.82477417 24.73738281 5.82477417 25.6171875 4.35083008 C26.45554865 2.92558651 27.26051793 1.47896414 28 0 C30.31 0 32.62 0 35 0 C35.11184926 4.96331099 34.71866281 9.57005655 33.90625 14.46484375 C33.79526978 15.14301651 33.68428955 15.82118927 33.56994629 16.51991272 C33.21851108 18.660008 32.85939652 20.79872888 32.5 22.9375 C32.25860313 24.39900416 32.01771293 25.8605921 31.77734375 27.32226562 C31.19074588 30.88249719 30.59725967 34.44153962 30 38 C28.35 38 26.7 38 25 38 C25.47844651 34.31240619 25.95788712 30.62494227 26.4375 26.9375 C26.57220703 25.89916016 26.70691406 24.86082031 26.84570312 23.79101562 C27.53147986 18.52224312 28.2318936 13.25742729 29 8 C28.73372803 8.48243164 28.46745605 8.96486328 28.19311523 9.46191406 C26.02937407 13.37871859 23.85684621 17.2903067 21.671875 21.1953125 C20.06496102 24.06934748 18.48668662 26.95342042 16.953125 29.8671875 C16.37046875 30.94226563 15.7878125 32.01734375 15.1875 33.125 C14.68605469 34.07632813 14.18460937 35.02765625 13.66796875 36.0078125 C13.11753906 36.66523437 12.56710937 37.32265625 12 38 C10.35 38 8.7 38 7 38 C5.68 28.76 4.36 19.52 3 10 C1.10137172 13.79725656 0.10233086 17.09081699 -0.9375 21.1875 C-2.40624041 26.88059783 -4.05313547 32.45143609 -6 38 C-7.32 38 -8.64 38 -10 38 C-9.37593437 30.25768584 -7.17578168 23.0576528 -5 15.625 C-4.62709848 14.32957254 -4.25469865 13.03400056 -3.8828125 11.73828125 C-1.15472274 2.30944549 -1.15472274 2.30944549 0 0 Z " fill="#0F659A" transform="translate(273,28)"/>
<path d="M0 0 C29.79106657 -0.97651 52.65695469 2.79116349 77.5 20.125 C78.11190186 20.54475098 78.72380371 20.96450195 79.35424805 21.39697266 C82.45956675 23.6031654 84.71785085 25.33912676 86 29 C82.12846543 31.73284793 79.71364915 32.40116163 75 32 C72.60546875 30.890625 72.60546875 30.890625 70.1875 29.25 C69.23617187 28.61449219 68.28484375 27.97898437 67.3046875 27.32421875 C64.86930823 25.62994413 62.46801029 23.89162363 60.0703125 22.14453125 C53.08027523 17.07017365 46.17348247 12.25537247 38.4375 8.375 C37.80755127 8.05668213 37.17760254 7.73836426 36.52856445 7.41040039 C28.05828318 3.33834377 20.24322874 2.65264392 11 2.375 C9.40865234 2.31699219 9.40865234 2.31699219 7.78515625 2.2578125 C5.19026933 2.16430306 2.59537551 2.07855098 0 2 C0 1.34 0 0.68 0 0 Z " fill="#066298" transform="translate(35,59)"/>
<path d="M0 0 C0.84256348 0.4844458 1.68512695 0.9688916 2.55322266 1.46801758 C6.35441837 3.15752764 9.00842115 3.42325686 13.1484375 3.51171875 C13.80582916 3.52966995 14.46322083 3.54762115 15.14053345 3.56611633 C17.21862572 3.61984437 19.29649347 3.65399125 21.375 3.6875 C22.79299976 3.72070653 24.21097001 3.75519924 25.62890625 3.79101562 C29.0857218 3.87554651 32.54261638 3.94253568 36 4 C36.495 6.475 36.495 6.475 37 9 C37.87011719 8.94779297 37.87011719 8.94779297 38.7578125 8.89453125 C43.8642401 8.71757584 47.79246334 8.73915909 52 12 C52.875 15.6875 52.875 15.6875 53 19 C52.17048828 18.76216797 52.17048828 18.76216797 51.32421875 18.51953125 C43.98550496 16.87911287 37.60554452 17.53261079 31.0703125 21.22265625 C28.30904793 22.25943295 26.82759353 21.7744498 24 21 C21.87524414 19.77246094 21.87524414 19.77246094 19.78515625 18.234375 C19.01623047 17.67363281 18.24730469 17.11289062 17.45507812 16.53515625 C16.66552734 15.94605469 15.87597656 15.35695313 15.0625 14.75 C14.27681641 14.17636719 13.49113281 13.60273437 12.68164062 13.01171875 C10.43719993 11.36266525 8.21434988 9.68918119 6 8 C5.37206543 7.52755859 4.74413086 7.05511719 4.09716797 6.56835938 C2.43359375 5.265625 2.43359375 5.265625 0 3 C0 2.01 0 1.02 0 0 Z " fill="#096499" transform="translate(142,29)"/>
<path d="M0 0 C-0.33 1.32 -0.66 2.64 -1 4 C-1.99 3.94199219 -2.98 3.88398437 -4 3.82421875 C-13.81755016 3.32718644 -13.81755016 3.32718644 -22.48046875 7.4609375 C-26.62259036 11.65629974 -28.21681952 15.18428147 -28.4375 21.125 C-28.25363473 25.1577783 -27.79416251 27.9167862 -25 31 C-20.45211513 33.89410856 -15.19526561 33.13854042 -10 33 C-9.34 29.04 -8.68 25.08 -8 21 C-10.31 21 -12.62 21 -15 21 C-15 20.01 -15 19.02 -15 18 C-10.71 18 -6.42 18 -2 18 C-2.3052027 20.33988735 -2.64216215 22.66788439 -3 25 C-3.12246094 25.86496094 -3.24492187 26.72992188 -3.37109375 27.62109375 C-3.51675781 28.50925781 -3.66242188 29.39742187 -3.8125 30.3125 C-3.94269531 31.15425781 -4.07289063 31.99601562 -4.20703125 32.86328125 C-5 35 -5 35 -6.58203125 36.26953125 C-10.00463177 37.30349942 -13.33222507 37.3684995 -16.875 37.375 C-17.56980469 37.39949219 -18.26460937 37.42398438 -18.98046875 37.44921875 C-24.15606859 37.47845943 -27.05789182 36.30064087 -31 33 C-34.2185356 28.90368196 -35.68232127 24.20005265 -35.38671875 19.01171875 C-34.20550812 12.86703718 -30.83017057 7.8851372 -26 4 C-17.87751572 -1.41498952 -9.44911401 -2.73173438 0 0 Z " fill="#0E669A" transform="translate(261,29)"/>
<path d="M0 0 C2.97033746 1.98022497 4.65454093 3.35242595 5.40625 6.9375 C5.60777454 11.37103981 4.88516175 14.4965893 2 18 C-1.20528701 20.32106991 -4.12159743 20.55405751 -8 20 C-11.84380115 16.75412347 -13.83783616 14.71893666 -14.3125 9.6875 C-13.95124058 5.42463889 -12.98007946 3.98007946 -10 1 C-6.76823243 -0.61588379 -3.49384717 -0.57451407 0 0 Z " fill="#11649A" transform="translate(413,46)"/>
<path d="M0 0 C6.93 0 13.86 0 21 0 C20.67 1.32 20.34 2.64 20 4 C14.72 4 9.44 4 4 4 C3.7834375 5.8253125 3.7834375 5.8253125 3.5625 7.6875 C3.18652748 10.85641121 2.63024451 13.84877745 2 17 C6.62 17 11.24 17 16 17 C16 18.32 16 19.64 16 21 C11.05 21.33 6.1 21.66 1 22 C0.525625 24.26875 0.05125 26.5375 -0.4375 28.875 C-1.875 35.75 -1.875 35.75 -3 38 C-4.32 38 -5.64 38 -7 38 C-6.44322254 29.61285113 -4.7559147 21.56841382 -2.9375 13.375 C-2.65248001 12.07172706 -2.36797132 10.76834219 -2.08398438 9.46484375 C-1.39432984 6.30879757 -0.69786003 3.15424195 0 0 Z " fill="#086298" transform="translate(319,28)"/>
<path d="M0 0 C1.32 0 2.64 0 4 0 C7.45076489 8.90051656 10.75424696 17.70179445 13 27 C11.68 27 10.36 27 9 27 C8.34 24.36 7.68 21.72 7 19 C3.7 19 0.4 19 -3 19 C-3.66 21.64 -4.32 24.28 -5 27 C-6.32 27 -7.64 27 -9 27 C-6.75424696 17.70179445 -3.45076489 8.90051656 0 0 Z " fill="#12659A" transform="translate(430,38)"/>
<path d="M0 0 C1.32 0 2.64 0 4 0 C6.97 8.58 9.94 17.16 13 26 C11.68 26.33 10.36 26.66 9 27 C8.34 24.36 7.68 21.72 7 19 C2.05 19.495 2.05 19.495 -3 20 C-3.99 22.31 -4.98 24.62 -6 27 C-6.99 27 -7.98 27 -9 27 C-8.31571131 21.26908218 -6.42909558 16.09129184 -4.5 10.6875 C-4.01853516 9.30981445 -4.01853516 9.30981445 -3.52734375 7.90429688 C-1.13627679 1.13627679 -1.13627679 1.13627679 0 0 Z " fill="#0B6298" transform="translate(351,38)"/>
<path d="M0 0 C1.43655854 -0.08131463 2.8744483 -0.13933559 4.3125 -0.1875 C5.51326172 -0.23970703 5.51326172 -0.23970703 6.73828125 -0.29296875 C9 0 9 0 10.78125 1 C12.72956791 4.19723965 12.31086651 7.56558588 12.1875 11.1875 C12.17396484 11.93708984 12.16042969 12.68667969 12.14648438 13.45898438 C12.11118539 15.30629767 12.05737917 17.15324066 12 19 C11.1028125 18.690625 11.1028125 18.690625 10.1875 18.375 C7.71549154 17.69328085 7.71549154 17.69328085 5 20 C2.18061103 20.35242362 0.61139923 20.34645957 -1.875 18.9375 C-3 17 -3 17 -3 13.5 C-2 10 -2 10 0.1875 8.0625 C3.31918019 6.87942082 5.67919334 6.76831581 9 7 C8.67 5.68 8.34 4.36 8 3 C5.03 3 2.06 3 -1 3 C-0.67 2.01 -0.34 1.02 0 0 Z " fill="#12659A" transform="translate(474,46)"/>
<path d="M0 0 C3.9375 0.625 3.9375 0.625 6.4375 2.25 C7.9375 4.625 7.9375 4.625 7.9375 10.625 C3.3175 10.625 -1.3025 10.625 -6.0625 10.625 C-4.68224426 13.74225921 -4.68224426 13.74225921 -2.0625 16.625 C0.9372145 17.44592015 3.83601659 17.6117458 6.9375 17.625 C6.9375 18.285 6.9375 18.945 6.9375 19.625 C3.29967368 20.83760877 0.76014001 21.02044552 -3.0625 20.625 C-6.90804163 17.44824822 -8.86474739 15.33885593 -9.4375 10.375 C-8.84757019 4.4757019 -6.1992928 0.33603643 0 0 Z " fill="#0C6097" transform="translate(375.0625,45.375)"/>
<path d="M0 0 C8.09328123 -0.02322795 16.18654839 -0.04096821 24.27985477 -0.05181217 C28.03838852 -0.05701819 31.79689936 -0.0640742 35.55541992 -0.07543945 C39.18641318 -0.08634967 42.81738448 -0.092294 46.44839287 -0.09487724 C47.82978091 -0.09671688 49.21116783 -0.10030912 50.59254646 -0.10573006 C52.53572531 -0.11304849 54.47892651 -0.11340898 56.42211914 -0.11352539 C57.52576309 -0.115746 58.62940704 -0.11796661 59.76649475 -0.12025452 C63.23444157 0.00871891 66.5750499 0.45346775 70 1 C70 1.33 70 1.66 70 2 C62.12705573 2.97449117 54.33357264 3.17530012 46.40625 3.203125 C45.13777222 3.20882507 43.86929443 3.21452515 42.56237793 3.22039795 C39.8999473 3.22979322 37.23762796 3.23672045 34.57519531 3.24023438 C31.16093447 3.24577268 27.74706171 3.2699517 24.33292389 3.29820633 C21.06572868 3.32123136 17.79851503 3.32327092 14.53125 3.328125 C13.30426392 3.3404718 12.07727783 3.3528186 10.81311035 3.36553955 C9.1199469 3.3610379 9.1199469 3.3610379 7.39257812 3.35644531 C6.39681763 3.36009094 5.40105713 3.36373657 4.37512207 3.36749268 C3.19943665 3.1855838 3.19943665 3.1855838 2 3 C1.34 2.01 0.68 1.02 0 0 Z " fill="#1E6C9E" transform="translate(0,0)"/>
<path d="M0 0 C2.95653032 0.51739281 3.68007396 1.10279488 5.5 3.4375 C5.8984375 5.59375 5.8984375 5.59375 5.875 7.9375 C5.88273437 8.7109375 5.89046875 9.484375 5.8984375 10.28125 C5.40844456 12.93297648 4.62507645 13.82081504 2.5 15.4375 C-0.28844081 15.85576612 -1.83474158 15.80453913 -4.3125 14.4375 C-6.20601936 11.24841476 -6.02282526 7.99700895 -5.5 4.4375 C-4.02506341 1.33237034 -3.3960639 0.59431118 0 0 Z " fill="#F9FAFC" transform="translate(408.5,47.5625)"/>
<path d="M0 0 C0.99 0 1.98 0 3 0 C3.83719383 2.29032311 4.6698929 4.58210957 5.5 6.875 C5.73847656 7.52597656 5.97695313 8.17695312 6.22265625 8.84765625 C8 13.7734375 8 13.7734375 8 16 C6.68 16 5.36 16 4 16 C3.34 13.36 2.68 10.72 2 8 C-1.3 8 -4.6 8 -8 8 C-8.66 10.64 -9.32 13.28 -10 16 C-11.32 16 -12.64 16 -14 16 C-13.60350587 14.20376144 -13.18206548 12.41301565 -12.75 10.625 C-12.51796875 9.62726562 -12.2859375 8.62953125 -12.046875 7.6015625 C-11 5 -11 5 -8.890625 3.6484375 C-8.26671875 3.43445312 -7.6428125 3.22046875 -7 3 C-7 3.66 -7 4.32 -7 5 C-4.36 5 -1.72 5 1 5 C0.67 3.35 0.34 1.7 0 0 Z " fill="#11659A" transform="translate(435,49)"/>
<path d="M0 0 C-0.33 0.99 -0.66 1.98 -1 3 C-2.65 3 -4.3 3 -6 3 C-6.33 4.32 -6.66 5.64 -7 7 C-5.576875 7.433125 -5.576875 7.433125 -4.125 7.875 C-1 9 -1 9 1 11 C1.375 13.9375 1.375 13.9375 1 17 C-0.5625 18.875 -0.5625 18.875 -3 20 C-6.75 20.1875 -6.75 20.1875 -10 20 C-10.33 18.68 -10.66 17.36 -11 16 C-8.36 16 -5.72 16 -3 16 C-3.04768403 14.12119128 -3.04768403 14.12119128 -4 12 C-4.99 11.360625 -5.98 10.72125 -7 10.0625 C-10 8 -10 8 -11.0625 5.4375 C-11 3 -11 3 -10.0625 1.1875 C-6.76781888 -0.70943762 -3.75761536 -0.18480076 0 0 Z " fill="#075F96" transform="translate(457,46)"/>
<path d="M0 0 C17.16 0 34.32 0 52 0 C52 0.99 52 1.98 52 3 C35.17 2.67 18.34 2.34 1 2 C0.67 1.34 0.34 0.68 0 0 Z " fill="#015993" transform="translate(9,15)"/>
<path d="M0 0 C15.51 0 31.02 0 47 0 C46.34 0.33 45.68 0.66 45 1 C45 1.66 45 2.32 45 3 C30.15 2.67 15.3 2.34 0 2 C0 1.34 0 0.68 0 0 Z " fill="#015792" transform="translate(18,30)"/>
<path d="M0 0 C1.32 0.33 2.64 0.66 4 1 C6.68149993 0.61432869 6.68149993 0.61432869 9 0 C9 0.99 9 1.98 9 3 C8.19175781 3.41894531 7.38351562 3.83789062 6.55078125 4.26953125 C3.66948247 5.79970529 3.66948247 5.79970529 3.29296875 9.13671875 C3.25816406 10.30847656 3.22335937 11.48023438 3.1875 12.6875 C3.13980469 13.86699219 3.09210938 15.04648437 3.04296875 16.26171875 C3.02878906 17.16535156 3.01460938 18.06898437 3 19 C2.01 19 1.02 19 0 19 C0 12.73 0 6.46 0 0 Z " fill="#005A93" transform="translate(388,46)"/>
<path d="M0 0 C1.2375 0.1546875 1.2375 0.1546875 2.5 0.3125 C4.5 3.3125 4.5 3.3125 4.125 6.5 C3.91875 7.428125 3.7125 8.35625 3.5 9.3125 C0.625 9.9375 0.625 9.9375 -2.5 10.3125 C-4.5 8.3125 -4.5 8.3125 -4.75 5.3125 C-4.43541678 1.53750135 -3.81908518 0.47738565 0 0 Z " fill="#9AB9D1" transform="translate(354.5,92.6875)"/>
<path d="M0 0 C6.93 0 13.86 0 21 0 C20.67 1.32 20.34 2.64 20 4 C14.72 4 9.44 4 4 4 C4 3.34 4 2.68 4 2 C2.68 2.33 1.36 2.66 0 3 C0 2.01 0 1.02 0 0 Z " fill="#216D9F" transform="translate(319,28)"/>
<path d="M0 0 C2.375 0.75 2.375 0.75 3.375 1.75 C3.5625 4.6875 3.5625 4.6875 3.375 7.75 C2.715 8.41 2.055 9.07 1.375 9.75 C-1.75 9.375 -1.75 9.375 -4.625 8.75 C-5.95341008 3.31559513 -5.95341008 3.31559513 -4.5 0.8125 C-2.625 -0.25 -2.625 -0.25 0 0 Z " fill="#9BB9D1" transform="translate(460.625,93.25)"/>
<path d="M0 0 C2.875 -0.125 2.875 -0.125 6 0 C8 2 8 2 8.3125 5 C8.1578125 6.485 8.1578125 6.485 8 8 C5 10 5 10 0 10 C0 6.7 0 3.4 0 0 Z " fill="#9CBAD1" transform="translate(280,93)"/>
<path d="M0 0 C9.57 0 19.14 0 29 0 C21.51511015 4.98992657 9.66086399 3.11379237 1 3 C0.67 2.01 0.34 1.02 0 0 Z " fill="#11669A" transform="translate(26,44)"/>
<path d="M0 0 C1.65 0 3.3 0 5 0 C7 2 7 2 7.3125 5 C7.209375 5.99 7.10625 6.98 7 8 C4 10 4 10 0 10 C0 6.7 0 3.4 0 0 Z " fill="#9CBAD2" transform="translate(337,93)"/>
<path d="M0 0 C1.65 0 3.3 0 5 0 C6 1 6 1 6.09765625 3.06640625 C6.08605469 3.89011719 6.07445312 4.71382813 6.0625 5.5625 C6.05347656 6.38878906 6.04445313 7.21507813 6.03515625 8.06640625 C6.01775391 9.02353516 6.01775391 9.02353516 6 10 C4.02 10 2.04 10 0 10 C0 6.7 0 3.4 0 0 Z " fill="#6A96BB" transform="translate(484,93)"/>
<path d="M0 0 C-0.875 6.875 -0.875 6.875 -2 8 C-3.99958364 8.04080783 -6.00045254 8.04254356 -8 8 C-8.33 6.35 -8.66 4.7 -9 3 C-5.55930376 0.70620251 -4.27709699 0 0 0 Z " fill="#E4EBF1" transform="translate(483,55)"/>
<path d="M0 0 C0.99 0 1.98 0 3 0 C3 6.27 3 12.54 3 19 C2.01 19 1.02 19 0 19 C0 12.73 0 6.46 0 0 Z " fill="#005B94" transform="translate(463,46)"/>
<path d="M0 0 C0.66 0 1.32 0 2 0 C2.99 3.96 3.98 7.92 5 12 C2.36 12 -0.28 12 -3 12 C-2.01 8.04 -1.02 4.08 0 0 Z " fill="#E8EEF3" transform="translate(431,42)"/>
<path d="M0 0 C2 1 2 1 2.8515625 3.50390625 C3.10679687 4.51324219 3.36203125 5.52257813 3.625 6.5625 C3.88539063 7.57441406 4.14578125 8.58632813 4.4140625 9.62890625 C4.60742188 10.41136719 4.80078125 11.19382812 5 12 C2.36 12 -0.28 12 -3 12 C-2.68950274 10.56206608 -2.3765224 9.1246682 -2.0625 7.6875 C-1.88847656 6.88699219 -1.71445312 6.08648437 -1.53515625 5.26171875 C-1 3 -1 3 0 0 Z " fill="#E9EFF4" transform="translate(352,42)"/>
<path d="M0 0 C4.21922763 -0.33485934 7.9513199 -0.34956003 12 1 C11.67 2.32 11.34 3.64 11 5 C4.07 4.505 4.07 4.505 -3 4 C-2.01 2.68 -1.02 1.36 0 0 Z " fill="#076097" transform="translate(249,28)"/>
<path d="M0 0 C0.66 0 1.32 0 2 0 C2.99 3.3 3.98 6.6 5 10 C2.36 10 -0.28 10 -3 10 C-2.69201674 8.51988629 -2.378482 7.04092675 -2.0625 5.5625 C-1.88847656 4.73878906 -1.71445313 3.91507812 -1.53515625 3.06640625 C-1 1 -1 1 0 0 Z " fill="#85AAC6" transform="translate(244,93)"/>
<path d="M0 0 C1.65 1.65 3.3 3.3 5 5 C5.33 3.35 5.66 1.7 6 0 C6.33 0 6.66 0 7 0 C7 3.3 7 6.6 7 10 C4.69 10 2.38 10 0 10 C0 6.7 0 3.4 0 0 Z " fill="#6C97BC" transform="translate(365,93)"/>
<path d="M0 0 C3.875 3.75 3.875 3.75 5 6 C5.33 4.02 5.66 2.04 6 0 C6.33 0 6.66 0 7 0 C7 3.3 7 6.6 7 10 C4.69 10 2.38 10 0 10 C0 6.7 0 3.4 0 0 Z " fill="#6F99BD" transform="translate(323,93)"/>
<path d="M0 0 C3.29714793 0.32971479 4.6226839 0.6226839 7 3 C7 3.99 7 4.98 7 6 C3.7 6 0.4 6 -3 6 C-2 2 -2 2 0 0 Z " fill="#F4F7F9" transform="translate(373,48)"/>
<path d="M0 0 C4.93054827 2.71683272 9.46284362 5.66657898 14 9 C13.67 9.99 13.34 10.98 13 12 C10.8244803 10.57455646 8.66018146 9.13585452 6.5 7.6875 C5.87996094 7.28337891 5.25992188 6.87925781 4.62109375 6.46289062 C3.02627762 5.38507533 1.5064969 4.19816168 0 3 C0 2.01 0 1.02 0 0 Z " fill="#E9EFF4" transform="translate(117,48)"/>
<path d="M0 0 C1.32 0 2.64 0 4 0 C6.125 5.625 6.125 5.625 5 9 C4.34 9 3.68 9 3 9 C2.731875 8.360625 2.46375 7.72125 2.1875 7.0625 C1.11332248 4.66868314 1.11332248 4.66868314 -2 4 C-1.34 2.68 -0.68 1.36 0 0 Z " fill="#18699C" transform="translate(351,38)"/>
<path d="M0 0 C2.97 0.495 2.97 0.495 6 1 C5.67 2.32 5.34 3.64 5 5 C3.68 5.33 2.36 5.66 1 6 C0.67 7.32 0.34 8.64 0 10 C0 6.7 0 3.4 0 0 Z " fill="#6996BA" transform="translate(444,93)"/>
<path d="M0 0 C2.97 0.495 2.97 0.495 6 1 C5.67 2.32 5.34 3.64 5 5 C3.68 5.33 2.36 5.66 1 6 C0.67 7.32 0.34 8.64 0 10 C0 6.7 0 3.4 0 0 Z " fill="#6998BB" transform="translate(255,93)"/>
<path d="M0 0 C0.66 0 1.32 0 2 0 C2.66 2.97 3.32 5.94 4 9 C3.67 8.34 3.34 7.68 3 7 C1.68 7 0.36 7 -1 7 C-1.33 7.99 -1.66 8.98 -2 10 C-3.39195915 5.82412255 -1.82323219 3.86525224 0 0 Z " fill="#578AB2" transform="translate(412,93)"/>
<path d="M0 0 C2.99324263 1.0975223 3.84610901 1.67682892 5.25 4.625 C5.4975 5.40875 5.745 6.1925 6 7 C4.68 8.65 3.36 10.3 2 12 C1.87625 10.9275 1.7525 9.855 1.625 8.75 C1.10356064 5.62136385 0.59911746 3.66519576 -1 1 C-0.67 0.67 -0.34 0.34 0 0 Z " fill="#2471A1" transform="translate(412,46)"/>
<path d="M0 0 C0.33 0 0.66 0 1 0 C1 4.29 1 8.58 1 13 C-0.32 12.67 -1.64 12.34 -3 12 C-5.68149993 12.38567131 -5.68149993 12.38567131 -8 13 C-3.25 9.125 -3.25 9.125 -1 8 C-0.53476937 6.10466658 -0.53476937 6.10466658 -0.375 3.9375 C-0.25125 2.638125 -0.1275 1.33875 0 0 Z " fill="#005892" transform="translate(485,52)"/>
<path d="M0 0 C2.01822917 0.06510417 4.03645833 0.13020833 6.0546875 0.1953125 C5.7246875 1.1853125 5.3946875 2.1753125 5.0546875 3.1953125 C4.2709375 3.1334375 3.4871875 3.0715625 2.6796875 3.0078125 C1.3803125 3.100625 1.3803125 3.100625 0.0546875 3.1953125 C-0.9353125 4.6803125 -0.9353125 4.6803125 -1.9453125 6.1953125 C-2.2753125 5.8653125 -2.6053125 5.5353125 -2.9453125 5.1953125 C-3.6053125 5.8553125 -4.2653125 6.5153125 -4.9453125 7.1953125 C-3.87057023 0.38861147 -3.87057023 0.38861147 0 0 Z " fill="#19679B" transform="translate(450.9453125,45.8046875)"/>
<path d="M0 0 C0.99 0.99 1.98 1.98 3 3 C2.34 5.31 1.68 7.62 1 10 C0.34 10 -0.32 10 -1 10 C-1.33 10.66 -1.66 11.32 -2 12 C-3.15957207 8.52128379 -2.77456651 7.65780355 -1.5625 4.3125 C-1.13130859 3.10013672 -1.13130859 3.10013672 -0.69140625 1.86328125 C-0.46324219 1.24839844 -0.23507812 0.63351563 0 0 Z " fill="#1B6B9E" transform="translate(428,42)"/>
<path d="M0 0 C0.89674777 2.51089376 1.13172674 3.64535109 0.1875 6.1875 C-1 8 -1 8 -3 9 C-4.13350534 11.01669827 -4.13350534 11.01669827 -5 13 C-5.602537 6.97463002 -5.602537 6.97463002 -3.88671875 4.19921875 C-2.65378147 2.74400545 -1.33191067 1.36520843 0 0 Z " fill="#2971A1" transform="translate(371,46)"/>
<path d="M0 0 C6.36363636 -0.48951049 6.36363636 -0.48951049 9.4375 1.875 C11 4 11 4 11 6 C10.278125 5.690625 9.55625 5.38125 8.8125 5.0625 C6.19692691 4.07439461 3.74881018 3.4712246 1 3 C0.67 2.01 0.34 1.02 0 0 Z " fill="#14659A" transform="translate(372,46)"/>
<path d="M0 0 C2 1 2 1 2 1 Z M0 1 C0.66 1.99 1.32 2.98 2 4 C-2.29 4 -6.58 4 -11 4 C-6.61017006 0.70762754 -5.28011468 0.41332059 0 1 Z " fill="#005A94" transform="translate(249,62)"/>
<path d="M0 0 C4.29 0 8.58 0 13 0 C13 0.33 13 0.66 13 1 C11.02 1 9.04 1 7 1 C7 1.66 7 2.32 7 3 C4.69 3 2.38 3 0 3 C0 2.01 0 1.02 0 0 Z " fill="#005A93" transform="translate(246,47)"/>
<path d="M0 0 C-0.33 2.97 -0.66 5.94 -1 9 C-2.32 8.34 -3.64 7.68 -5 7 C-4.39816251 4.97954558 -3.72693904 2.97888961 -3 1 C-1 0 -1 0 0 0 Z " fill="#0A6097" transform="translate(418,53)"/>
<path d="M0 0 C-2 3 -2 3 -4.1640625 3.51171875 C-4.97617187 3.56972656 -5.78828125 3.62773438 -6.625 3.6875 C-7.85089844 3.78611328 -7.85089844 3.78611328 -9.1015625 3.88671875 C-9.72804688 3.92410156 -10.35453125 3.96148437 -11 4 C-7.66477677 0.47086844 -4.87838929 -1.62612976 0 0 Z " fill="#226E9F" transform="translate(416,62)"/>
<path d="M0 0 C6.625 -0.25 6.625 -0.25 10 2 C6.7 2.33 3.4 2.66 0 3 C0 2.01 0 1.02 0 0 Z " fill="#1D6B9E" transform="translate(58,59)"/>
<path d="M0 0 C6.82211538 3.47307692 6.82211538 3.47307692 7.72265625 6.140625 C7.81417969 6.75421875 7.90570313 7.3678125 8 8 C6.6589523 7.24266726 5.32730219 6.46867264 4 5.6875 C2.88625 5.04361328 2.88625 5.04361328 1.75 4.38671875 C1.1725 3.92910156 0.595 3.47148438 0 3 C0 2.01 0 1.02 0 0 Z " fill="#EAEFF4" transform="translate(118,65)"/>
<path d="M0 0 C2.33333333 0 4.66666667 0 7 0 C7 0.99 7 1.98 7 3 C4.625 4.0625 4.625 4.0625 2 5 C1.34 4.67 0.68 4.34 0 4 C0 2.68 0 1.36 0 0 Z " fill="#206B9D" transform="translate(390,46)"/>
<path d="M0 0 C0 1.65 0 3.3 0 5 C-1.65 5 -3.3 5 -5 5 C-5 3.68 -5 2.36 -5 1 C-1.125 0 -1.125 0 0 0 Z " fill="#FBFCFD" transform="translate(490,98)"/>
<path d="M0 0 C0.66 0.99 1.32 1.98 2 3 C1.34 4.32 0.68 5.64 0 7 C-0.99 7 -1.98 7 -3 7 C-2.625 4.0625 -2.625 4.0625 -2 1 C-1.34 0.67 -0.68 0.34 0 0 Z " fill="#19689C" transform="translate(345,58)"/>
<path d="M0 0 C2.64 0 5.28 0 8 0 C8 0.99 8 1.98 8 3 C5.03 3 2.06 3 -1 3 C-0.67 2.01 -0.34 1.02 0 0 Z " fill="#095C95" transform="translate(474,46)"/>
<path d="M0 0 C2.475 0.495 2.475 0.495 5 1 C5 1.99 5 2.98 5 4 C3.35 4 1.7 4 0 4 C0 2.68 0 1.36 0 0 Z " fill="#C1D2E1" transform="translate(256,99)"/>
<path d="M0 0 C3.465 1.98 3.465 1.98 7 4 C6.67 4.99 6.34 5.98 6 7 C3 5.1875 3 5.1875 0 3 C0 2.01 0 1.02 0 0 Z " fill="#E6EDF2" transform="translate(106,73)"/>
<path d="M0 0 C1.65 0 3.3 0 5 0 C5.33 0.99 5.66 1.98 6 3 C3.69 3 1.38 3 -1 3 C-0.67 2.01 -0.34 1.02 0 0 Z " fill="#CCDBE7" transform="translate(296,100)"/>
<path d="M0 0 C1.32 0 2.64 0 4 0 C4.33 1.32 4.66 2.64 5 4 C3.35 4 1.7 4 0 4 C0 2.68 0 1.36 0 0 Z " fill="#C1D3E2" transform="translate(445,99)"/>
<path d="M0 0 C2.875 0.3125 2.875 0.3125 6 1 C6.66 1.99 7.32 2.98 8 4 C5.69 4 3.38 4 1 4 C0.67 2.68 0.34 1.36 0 0 Z " fill="#3778A6" transform="translate(446,62)"/>
<path d="M0 0 C1.65 0 3.3 0 5 0 C5 0.99 5 1.98 5 3 C3.02 3.33 1.04 3.66 -1 4 C-0.67 2.68 -0.34 1.36 0 0 Z " fill="#2874A3" transform="translate(61,15)"/>
</svg>
